# xmcd
#
# Track frame offsets: 
#        150
#        13104
#        22658
#        35604
#        46973
#        56516
#        67659
#        78724
#        90288
#        101651
#        111787
#        122344
#        131630
#        141720
#        152565
#        164424
#        173462
#        186907
#        201789
#        214025
#        228697
#        240806
#        254610
#
# Disc length: 3574 seconds
#
# Revision: 0
# Processed by: cddbd v1.5.2PL0 Copyright (c) Steve Scherf et al.
# Submitted via: ExactAudioCopy v0.99pb4
#
DISCID=2e0df417
DTITLE=Lee Dorsey - Ride Your Pony
DYEAR=1968
DGENRE=Soul
TTITLE0=Ride Your Pony
TTITLE1=The Kitty Cat Song
TTITLE2=Shortnin' Bread
TTITLE3=So Long
TTITLE4=People, I Wish You Could See
TTITLE5=Work, Work, Work
TTITLE6=Get Out Of My Life Woman
TTITLE7=Here Comes The Hurt Again
TTITLE8=Hello Mamma
TTITLE9=Can You Hear Me
TTITLE10=The Greatest Love
TTITLE11=Feelin'
TTITLE12=I Can't Get Away
TTITLE13=Go-Go Girl
TTITLE14=I Can Hear You Callin'
TTITLE15=My Old Car
TTITLE16=Love Lots Of Lovin' Feat. Betty Harris 
TTITLE17=Take Care Of Our Love
TTITLE18=Vista, Vista
TTITLE19=Cynthia
TTITLE20=Wonder Woman
TTITLE21=Four Corners
TTITLE22=Four Corners
EXTD=
EXTT0=
EXTT1=
EXTT2=
EXTT3=
EXTT4=
EXTT5=
EXTT6=
EXTT7=
EXTT8=
EXTT9=
EXTT10=
EXTT11=
EXTT12=
EXTT13=
EXTT14=
EXTT15=
EXTT16=
EXTT17=
EXTT18=
EXTT19=
EXTT20=
EXTT21=
EXTT22=
PLAYORDER=
